<?xml version="1.0"?>
<svg xmlns="http://www.w3.org/2000/svg" viewBox="0 0 512 512" width="512" height="512"><g id="Filled_outline" data-name="Filled outline"><path d="M362.17,208.32A24,24,0,0,1,344,248H168a24,24,0,0,1-6.9-46.99,23.684,23.684,0,0,1,3.18-.72A111.559,111.559,0,0,1,144,136c0-.95.01-1.9.04-2.84a.045.045,0,0,1,0-.05,112,112,0,1,1,203.68,67.18A23.931,23.931,0,0,1,362.17,208.32Z" style="fill:#92563a"/><path d="M362.17,208.32A24,24,0,0,1,344,248H168a24,24,0,0,1-6.9-46.99q2.475.09,4.98.09A147.515,147.515,0,0,0,313.6,53.59c0-4.74-.23-9.43-.66-14.06a112.043,112.043,0,0,1,34.78,160.76A23.931,23.931,0,0,1,362.17,208.32Z" style="fill:#875036"/><path d="M357.69,89.02A19.994,19.994,0,0,0,344,108v8a20,20,0,0,1-40,0V100a20,20,0,0,0-40,0v48a20,20,0,0,1-40,0V124a20,20,0,0,0-40,0v8a20,20,0,0,1-39.96,1.16.045.045,0,0,1,0-.05A112.01,112.01,0,0,1,357.69,89.02Z" style="fill:#4f2816"/><polygon points="344 248 334.16 274.84 328.09 291.4 327.39 293.3 313.06 332.37 304.11 356.8 298.04 373.35 294.97 381.71 281.87 417.44 274.06 438.75 267.99 455.3 256 488 244.01 455.3 237.94 438.75 230.13 417.44 217.03 381.72 213.96 373.35 207.89 356.8 198.94 332.37 184.61 293.3 183.91 291.4 177.84 274.84 168 248 344 248" style="fill:#fa9f0c"/><path d="M359.853,196.155a120.02,120.02,0,1,0-212.3-111.588l14.452,6.866a104,104,0,0,1,185.016-5.7A27.947,27.947,0,0,0,336,108v8a12,12,0,0,1-24,0V100a28,28,0,0,0-56,0v48a12,12,0,0,1-24,0V124a28,28,0,0,0-56,0v8a11.993,11.993,0,0,1-23.952.922,104.518,104.518,0,0,1,2.346-19.216l-15.633-3.412A120.773,120.773,0,0,0,136,136a119.24,119.24,0,0,0,16.147,60.155,32.03,32.03,0,0,0,10.07,59.312l86.272,235.287a8,8,0,0,0,15.022,0l86.272-235.287a32.03,32.03,0,0,0,10.07-59.312Zm-31.93,72.454L323.314,264l8-8h1.232ZM267.314,320,284,303.314,300.686,320,284,336.686Zm5.372,28L256,364.686,239.314,348,256,331.314ZM256,308.686,239.314,292,256,275.314,272.686,292ZM244.686,320,228,336.686,211.314,320,228,303.314ZM200,308.686l-1.938-1.938-7.914-21.582L200,275.314,216.686,292ZM216.686,348l-2.56,2.56-2.964-8.084ZM228,359.314,244.686,376,229.15,391.536,220.2,367.117ZM239.314,404,256,387.314,272.686,404,256,420.686Zm43.536-12.464L267.314,376,284,359.314l7.8,7.8ZM295.314,348l5.524-5.524-2.964,8.084Zm18.624-41.252L312,308.686,295.314,292,312,275.314l9.852,9.852ZM292.686,256l8,8L284,280.686,267.314,264l8-8Zm-56,0,8,8L228,280.686,211.314,264l8-8Zm-56,0,8,8-4.609,4.609L179.454,256ZM256,464.761l-5.754-15.693L256,443.314l5.754,5.754ZM344,240H168a16,16,0,0,1-2.488-31.807,8,8,0,0,0,5.318-12.5,103.211,103.211,0,0,1-16.416-37.371A28.026,28.026,0,0,0,192,132v-8a12,12,0,0,1,24,0v24a28,28,0,0,0,56,0V100a12,12,0,0,1,24,0v16a28,28,0,0,0,56,0v-8a11.985,11.985,0,0,1,2.042-6.693A104,104,0,0,1,343.638,192H192v16H345.619a7.913,7.913,0,0,0,.869.193A16,16,0,0,1,344,240Z"/></g></svg>
