<svg width="512" height="512" viewBox="0 0 512 512" fill="none" xmlns="http://www.w3.org/2000/svg">
<g clip-path="url(#clip0)">
<path d="M335.181 312.31C338.184 315.79 340.125 320.059 340.772 324.61C341.419 329.161 340.746 333.802 338.832 337.982C336.918 342.161 333.845 345.703 329.976 348.187C326.108 350.67 321.608 351.99 317.011 351.99H141.011C135.248 351.992 129.677 349.921 125.315 346.155C120.953 342.388 118.092 337.178 117.255 331.477C116.417 325.775 117.66 319.962 120.755 315.101C123.85 310.239 128.591 306.654 134.111 305C135.153 304.687 136.216 304.446 137.291 304.28C124.063 285.454 116.979 262.998 117.011 239.99C117.011 239.04 117.021 238.09 117.051 237.15C117.046 237.142 117.043 237.134 117.043 237.125C117.043 237.116 117.046 237.107 117.051 237.1C117.503 219.634 122.036 202.516 130.286 187.115C138.536 171.714 150.274 158.456 164.563 148.402C178.852 138.348 195.295 131.776 212.578 129.213C229.86 126.649 247.503 128.164 264.095 133.636C280.688 139.109 295.77 148.388 308.136 160.73C320.502 173.073 329.808 188.138 335.312 204.72C340.815 221.303 342.363 238.942 339.831 256.23C337.299 273.517 330.758 289.972 320.731 304.28C326.349 305.155 331.471 308.002 335.181 312.31V312.31Z" fill="#92563A"/>
<path d="M335.181 312.79C338.184 316.27 340.125 320.539 340.772 325.09C341.419 329.642 340.746 334.283 338.832 338.462C336.918 342.642 333.845 346.184 329.976 348.667C326.108 351.15 321.608 352.47 317.011 352.47H141.011C135.248 352.473 129.677 350.401 125.315 346.635C120.953 342.869 118.092 337.659 117.255 331.957C116.417 326.255 117.66 320.442 120.755 315.581C123.85 310.72 128.591 307.134 134.111 305.48C135.761 305.54 137.421 305.57 139.091 305.57C158.463 305.571 177.645 301.756 195.543 294.343C213.44 286.93 229.703 276.065 243.401 262.367C257.1 248.67 267.966 232.408 275.38 214.511C282.794 196.614 286.61 177.432 286.611 158.06C286.611 153.32 286.381 148.63 285.951 144C299.25 151.855 310.781 162.375 319.82 174.9C328.859 187.424 335.211 201.682 338.477 216.778C341.743 231.875 341.853 247.483 338.799 262.624C335.745 277.764 329.593 292.11 320.731 304.76C326.349 305.635 331.471 308.482 335.181 312.79V312.79Z" fill="#875036"/>
<path d="M330.701 185.022C326.714 186.346 323.246 188.892 320.789 192.299C318.332 195.706 317.01 199.801 317.011 204.002V212.002C317.011 217.306 314.904 222.393 311.153 226.144C307.402 229.894 302.315 232.002 297.011 232.002C291.707 232.002 286.62 229.894 282.869 226.144C279.118 222.393 277.011 217.306 277.011 212.002V196.002C277.011 190.697 274.904 185.61 271.153 181.859C267.402 178.109 262.315 176.002 257.011 176.002C251.707 176.002 246.62 178.109 242.869 181.859C239.118 185.61 237.011 190.697 237.011 196.002V244.002C237.011 249.306 234.904 254.393 231.153 258.144C227.402 261.894 222.315 264.002 217.011 264.002C211.707 264.002 206.62 261.894 202.869 258.144C199.118 254.393 197.011 249.306 197.011 244.002V220.002C197.011 214.697 194.904 209.61 191.153 205.859C187.402 202.109 182.315 200.002 177.011 200.002C171.707 200.002 166.62 202.109 162.869 205.859C159.118 209.61 157.011 214.697 157.011 220.002V228.002C156.985 233.188 154.945 238.162 151.322 241.873C147.699 245.584 142.776 247.742 137.592 247.893C132.407 248.043 127.367 246.174 123.535 242.679C119.703 239.185 117.378 234.338 117.051 229.162C117.046 229.154 117.043 229.145 117.043 229.137C117.043 229.128 117.046 229.119 117.051 229.112C117.705 203.841 126.888 179.534 143.107 160.144C159.327 140.754 181.628 127.421 206.385 122.312C231.143 117.203 256.901 120.618 279.471 132.004C302.041 143.389 320.096 162.074 330.701 185.022V185.022Z" fill="#4F2816"/>
</g>
<defs>
<clipPath id="clip0">
<rect width="512" height="512" fill="white"/>
</clipPath>
</defs>
</svg>
