<svg id="color_line" height="512" viewBox="0 0 74 74" width="512" xmlns="http://www.w3.org/2000/svg" data-name="color line"><path d="m49.91 9.57a3.989 3.989 0 0 1 -.87.7 9.856 9.856 0 0 1 -4.32.94 5.412 5.412 0 0 0 -5 5.4v4.93a2.405 2.405 0 1 1 -4.81 0v-3.34a2.234 2.234 0 0 0 -.67-1.61 2.284 2.284 0 0 0 -3.9 1.61v7.69a2.53 2.53 0 0 1 -5.06 0v-2.67a2.433 2.433 0 0 0 -2.43-2.43h-1.83v-1.81a15.976 15.976 0 0 1 28.89-9.41z" fill="#e1e6e9"/><path d="m49.91 9.57a3.989 3.989 0 0 1 -.87.7 4.909 4.909 0 0 1 -1.47.58 15.964 15.964 0 0 0 -25.07 1.42 15.973 15.973 0 0 1 27.41-2.7z" fill="#d5d6db"/><path d="m52.98 18.98v33.487a2.573 2.573 0 0 1 -2.572 2.573h-26.816a2.573 2.573 0 0 1 -2.572-2.573v-31.677h1.83a2.43 2.43 0 0 1 2.43 2.43v2.533a2.623 2.623 0 0 0 2.335 2.66 2.528 2.528 0 0 0 2.725-2.523v-7.56a2.369 2.369 0 0 1 2.134-2.406 2.287 2.287 0 0 1 1.766.666 2.234 2.234 0 0 1 .67 1.61v3.219a2.489 2.489 0 0 0 2.226 2.525 2.423 2.423 0 0 0 2.584-2.4v-4.925a5.419 5.419 0 0 1 5-5.409 9.86 9.86 0 0 0 4.321-.94 3.989 3.989 0 0 0 .87-.7 15.884 15.884 0 0 1 3.069 9.41z" fill="#b98c6c"/><path d="m52.98 18.98v33.49a2.569 2.569 0 0 1 -2.57 2.57h-26.82a2.569 2.569 0 0 1 -2.57-2.57v-.46h25.97a2.578 2.578 0 0 0 2.58-2.57v-33.49c0-1.92-1.059-3.658-1.813-5.149.15-.07 1.143-.451 1.283-.531a3.989 3.989 0 0 0 .87-.7 15.884 15.884 0 0 1 3.07 9.41z" fill="#9b715b"/><path d="m33.375 55.039h7.25v15.961h-7.25z" fill="#fcd462"/><g fill="#323c6b"><path d="m40.625 71.5h-7.25a.5.5 0 0 1 -.5-.5v-15.96a.5.5 0 0 1 .5-.5h7.25a.5.5 0 0 1 .5.5v15.96a.5.5 0 0 1 -.5.5zm-6.75-1h6.25v-14.96h-6.25z"/><path d="m46.8 22.344a.5.5 0 0 1 -.256-.929l.96-.573a.5.5 0 0 1 .512.86l-.961.572a.493.493 0 0 1 -.255.07z"/><path d="m40.985 29.487a.5.5 0 0 1 -.256-.929l.96-.573a.5.5 0 1 1 .512.859l-.961.573a.493.493 0 0 1 -.255.07z"/><path d="m46.8 32.818a.5.5 0 0 1 -.256-.93l.96-.573a.5.5 0 0 1 .512.86l-.961.573a.5.5 0 0 1 -.255.07z"/><path d="m39.042 43.5a.5.5 0 0 1 -.256-.93l.961-.57a.5.5 0 0 1 .511.859l-.961.573a.5.5 0 0 1 -.255.068z"/><path d="m36.106 50.022a.5.5 0 0 1 -.256-.929l.961-.572a.5.5 0 1 1 .511.859l-.961.572a.493.493 0 0 1 -.255.07z"/><path d="m45.333 50.022a.5.5 0 0 1 -.256-.929l.961-.572a.5.5 0 1 1 .512.859l-.961.572a.5.5 0 0 1 -.256.07z"/><path d="m25.443 50.309a.5.5 0 0 1 -.256-.93l.961-.572a.5.5 0 0 1 .512.859l-.961.572a.5.5 0 0 1 -.256.071z"/><path d="m46.294 41.984a.5.5 0 0 1 -.256-.929l.962-.573a.5.5 0 0 1 .512.86l-.961.572a.5.5 0 0 1 -.257.07z"/><path d="m29.278 43.79a.5.5 0 0 1 -.256-.93l.961-.572a.5.5 0 0 1 .512.859l-.961.573a.5.5 0 0 1 -.256.07z"/><path d="m33.585 37.787a.5.5 0 0 1 -.256-.93l.961-.572a.5.5 0 0 1 .512.86l-.961.572a.5.5 0 0 1 -.256.07z"/><path d="m40.985 36.253a.5.5 0 0 1 -.256-.929l.96-.573a.5.5 0 0 1 .512.86l-.961.572a.493.493 0 0 1 -.255.07z"/><path d="m33.585 29.773a.5.5 0 0 1 -.256-.929l.961-.573a.5.5 0 0 1 .512.86l-.961.572a.5.5 0 0 1 -.256.07z"/><path d="m26.807 36.253a.5.5 0 0 1 -.256-.929l.961-.573a.5.5 0 0 1 .511.86l-.96.572a.5.5 0 0 1 -.256.07z"/><path d="m21.218 9.081a.5.5 0 0 1 -.418-.775c.151-.229.3-.457.464-.681a.5.5 0 0 1 .816.58q-.228.319-.444.65a.5.5 0 0 1 -.418.226z"/><path d="m23.438 6.248a.5.5 0 0 1 -.358-.85 19.489 19.489 0 0 1 9.457-5.363.5.5 0 1 1 .23.973 18.494 18.494 0 0 0 -8.967 5.092.5.5 0 0 1 -.362.148z"/><path d="m55.982 39.674a.5.5 0 0 1 -.5-.5v-.88a.5.5 0 0 1 1 0v.88a.5.5 0 0 1 -.5.5z"/><path d="m55.982 50.667a.5.5 0 0 1 -.5-.5v-8.683a.5.5 0 0 1 1 0v8.683a.5.5 0 0 1 -.5.5z"/><path d="m50.408 55.54h-26.816a3.076 3.076 0 0 1 -3.072-3.073v-31.677a.5.5 0 0 1 .5-.5h1.83a2.933 2.933 0 0 1 2.93 2.93v2.532a2.112 2.112 0 0 0 1.871 2.162 2.026 2.026 0 0 0 2.189-2.024v-7.559a2.853 2.853 0 0 1 2.6-2.906 2.823 2.823 0 0 1 2.151.811 2.723 2.723 0 0 1 .819 1.964v3.219a2 2 0 0 0 1.76 2.026 1.849 1.849 0 0 0 1.482-.554 1.892 1.892 0 0 0 .568-1.351v-4.92a5.945 5.945 0 0 1 5.461-5.909 9.582 9.582 0 0 0 4.1-.866 3.478 3.478 0 0 0 .766-.615.5.5 0 0 1 .771.045 16.342 16.342 0 0 1 3.162 9.705v33.487a3.076 3.076 0 0 1 -3.072 3.073zm-28.888-34.25v31.177a2.075 2.075 0 0 0 2.072 2.073h26.816a2.075 2.075 0 0 0 2.072-2.073v-33.487a15.338 15.338 0 0 0 -2.649-8.654 4.961 4.961 0 0 1 -.532.372 10.051 10.051 0 0 1 -4.461 1 4.96 4.96 0 0 0 -4.618 4.922v4.92a2.923 2.923 0 0 1 -3.118 2.9 2.978 2.978 0 0 1 -2.692-3.024v-3.216a1.731 1.731 0 0 0 -.519-1.252 1.772 1.772 0 0 0 -1.387-.525 1.876 1.876 0 0 0 -1.664 1.908v7.559a3.025 3.025 0 0 1 -3.262 3.021 3.113 3.113 0 0 1 -2.8-3.159v-2.532a1.932 1.932 0 0 0 -1.93-1.93z"/><path d="m27.81 28.92a3.034 3.034 0 0 1 -3.03-3.03v-2.67a1.932 1.932 0 0 0 -1.93-1.93h-1.83a.5.5 0 0 1 -.5-.5v-1.81a16.476 16.476 0 0 1 29.794-9.7.5.5 0 0 1 -.037.635 4.468 4.468 0 0 1 -.978.788 10.044 10.044 0 0 1 -4.46 1 4.949 4.949 0 0 0 -4.619 4.907v4.93a2.891 2.891 0 0 1 -.861 2.058 2.842 2.842 0 0 1 -2.049.852 2.908 2.908 0 0 1 -2.9-2.91v-3.34a1.729 1.729 0 0 0 -.519-1.252 1.784 1.784 0 0 0 -3.051 1.252v7.69a3.025 3.025 0 0 1 -3.03 3.03zm-6.29-8.63h1.33a2.933 2.933 0 0 1 2.93 2.93v2.67a2.03 2.03 0 1 0 4.06 0v-7.69a2.785 2.785 0 0 1 4.754-1.964 2.723 2.723 0 0 1 .816 1.964v3.34a1.908 1.908 0 0 0 1.9 1.91 1.861 1.861 0 0 0 1.342-.559 1.892 1.892 0 0 0 .568-1.351v-4.93a5.932 5.932 0 0 1 5.463-5.9 9.575 9.575 0 0 0 4.094-.866 3.845 3.845 0 0 0 .466-.33 15.476 15.476 0 0 0 -27.723 9.466z"/></g><path d="m24.094 44.738a.65.65 0 0 1 -.65-.65v-.88a.65.65 0 0 1 1.3 0v.88a.65.65 0 0 1 -.65.65z" fill="#fff"/><path d="m24.094 41.562a.65.65 0 0 1 -.65-.65v-8.942a.65.65 0 0 1 1.3 0v8.942a.65.65 0 0 1 -.65.65z" fill="#fff"/></svg>