<svg width="512" height="512" viewBox="0 0 512 512" fill="none" xmlns="http://www.w3.org/2000/svg">
<path d="M315.181 265.322C318.184 268.802 320.125 273.071 320.772 277.622C321.419 282.173 320.746 286.814 318.832 290.994C316.918 295.173 313.845 298.715 309.976 301.198C306.108 303.682 301.608 305.002 297.011 305.002H121.011C115.248 305.004 109.677 302.933 105.315 299.167C100.953 295.4 98.0919 290.19 97.2547 284.488C96.4174 278.787 97.6598 272.974 100.755 268.113C103.85 263.251 108.591 259.666 114.111 258.012C115.153 257.699 116.216 257.458 117.291 257.292C104.063 238.466 96.9794 216.01 97.0109 193.002C97.0109 192.052 97.0209 191.102 97.0509 190.162C97.046 190.154 97.0434 190.145 97.0434 190.137C97.0434 190.128 97.046 190.119 97.0509 190.112C97.5034 172.646 102.036 155.528 110.286 140.127C118.536 124.725 130.274 111.468 144.563 101.414C158.852 91.3598 175.295 84.7882 192.578 82.2243C209.86 79.6604 227.503 81.1753 244.095 86.648C260.688 92.1207 275.77 101.399 288.136 113.742C300.502 126.085 309.808 141.15 315.312 157.732C320.815 174.314 322.363 191.954 319.831 209.241C317.299 226.529 310.758 242.984 300.731 257.292C306.349 258.167 311.471 261.013 315.181 265.322V265.322Z" fill="white"/>
<path d="M315.181 265.322C318.184 268.802 320.125 273.071 320.772 277.622C321.419 282.173 320.746 286.814 318.832 290.994C316.918 295.173 313.845 298.715 309.976 301.198C306.108 303.682 301.608 305.002 297.011 305.002H121.011C115.248 305.004 109.677 302.933 105.315 299.167C100.953 295.4 98.0919 290.19 97.2547 284.488C96.4174 278.787 97.6598 272.974 100.755 268.113C103.85 263.251 108.591 259.666 114.111 258.012C115.761 258.072 117.421 258.102 119.091 258.102C138.463 258.102 157.645 254.287 175.543 246.875C193.44 239.462 209.703 228.597 223.401 214.899C237.1 201.201 247.966 184.94 255.38 167.043C262.794 149.146 266.61 129.964 266.611 110.592C266.611 105.852 266.381 101.162 265.951 96.5316C279.25 104.387 290.781 114.907 299.82 127.431C308.859 139.956 315.211 154.214 318.477 169.31C321.743 184.406 321.853 200.015 318.799 215.155C315.745 230.296 309.593 244.642 300.731 257.292C306.349 258.167 311.471 261.013 315.181 265.322V265.322Z" fill="white"/>
<path d="M310.701 146.022C306.714 147.346 303.246 149.892 300.789 153.299C298.332 156.706 297.01 160.801 297.011 165.002V173.002C297.011 178.306 294.904 183.393 291.153 187.144C287.402 190.894 282.315 193.002 277.011 193.002C271.707 193.002 266.62 190.894 262.869 187.144C259.118 183.393 257.011 178.306 257.011 173.002V157.002C257.011 151.697 254.904 146.61 251.153 142.859C247.402 139.109 242.315 137.002 237.011 137.002C231.707 137.002 226.62 139.109 222.869 142.859C219.118 146.61 217.011 151.697 217.011 157.002V205.002C217.011 210.306 214.904 215.393 211.153 219.144C207.402 222.894 202.315 225.002 197.011 225.002C191.707 225.002 186.62 222.894 182.869 219.144C179.118 215.393 177.011 210.306 177.011 205.002V181.002C177.011 175.697 174.904 170.61 171.153 166.859C167.402 163.109 162.315 161.002 157.011 161.002C151.707 161.002 146.62 163.109 142.869 166.859C139.118 170.61 137.011 175.697 137.011 181.002V189.002C136.985 194.188 134.945 199.162 131.322 202.873C127.699 206.584 122.776 208.742 117.592 208.893C112.407 209.043 107.367 207.174 103.535 203.679C99.7026 200.185 97.3777 195.338 97.0509 190.162C97.046 190.154 97.0433 190.145 97.0433 190.137C97.0433 190.128 97.046 190.119 97.0509 190.112C97.7051 164.841 106.888 140.534 123.107 121.144C139.327 101.754 161.628 88.4207 186.385 83.3116C211.143 78.2025 236.901 81.6183 259.471 93.0037C282.041 104.389 300.096 123.074 310.701 146.022Z" fill="white"/>
</svg>
