<svg height="512pt" viewBox="-2 0 512 512.00013" width="512pt" xmlns="http://www.w3.org/2000/svg"><path d="m284.472656 25.875 26.890625 100.847656s24.125 12.832032 32.851563-13.859375c8.726562-26.691406.769531-91.878906.769531-91.878906-29.511719-25.664063-60.511719 4.890625-60.511719 4.890625" fill="#a5cdff"/><path d="m386.304688 26.117188s-21.636719-19.152344-40.855469-7.257813c-15.21875 9.421875-26.386719 33.433594-6.367188 84.25 2.421875 6.148437 3.515625 13.179687 1.65625 17.332031l26.574219-7.066406zm0 0" fill="#c4deff"/><path d="m311.363281 126.722656-26.890625-100.847656-178.421875 100.847656zm0 0" fill="#f7d291"/><path d="m284.472656 25.875-21.980468 12.421875 9.359374 35.097656c4.167969 15.640625-7.621093 30.984375-23.808593 30.984375h-102.464844l-39.527344 22.339844h205.3125zm0 0" fill="#f0c382"/><path d="m340.738281 120.441406c38.441407 14.335938 39.40625-33.414062 51.042969-51.210937 8.128906-12.433594 19.019531-19.390625 26.453125-22.96875 4.234375-2.042969 5.121094-7.652344 1.734375-10.914063-7.550781-7.257812-22.285156-18.011718-38.796875-13.082031-19.761719 5.902344-23.097656 29.769531-21.8125 43.371094 4.28125 45.425781-18.621094 54.804687-18.621094 54.804687zm0 0" fill="#c4deff"/><path d="m48.5625 159.570312h410.628906v344.929688h-410.628906zm0 0" fill="#ffedb1"/><path d="m48.5625 217.058594v85.398437c6.164062 3.15625 13.144531 4.941407 20.53125 4.941407s14.367188-1.785157 20.53125-4.941407c6.164062 3.15625 13.144531 4.941407 20.53125 4.941407 7.390625 0 14.367188-1.785157 20.53125-4.941407 6.164062 3.15625 13.144531 4.941407 20.53125 4.941407 7.390625 0 14.371094-1.785157 20.535156-4.941407 6.164063 3.15625 13.140625 4.941407 20.53125 4.941407 7.386719 0 14.367188-1.785157 20.53125-4.941407 6.164063 3.15625 13.144532 4.941407 20.53125 4.941407 7.386719 0 14.367188-1.785157 20.53125-4.941407 6.164063 3.15625 13.144532 4.941407 20.53125 4.941407 7.386719 0 14.367188-1.785157 20.53125-4.941407 6.164063 3.15625 13.144532 4.941407 20.53125 4.941407 7.390625 0 14.371094-1.785157 20.53125-4.941407 6.164063 3.15625 13.144532 4.941407 20.535156 4.941407 7.386719 0 14.367188-1.785157 20.53125-4.941407 6.164063 3.15625 13.144532 4.941407 20.53125 4.941407 7.386719 0 14.367188-1.785157 20.53125-4.941407 6.164063 3.15625 13.144532 4.941407 20.53125 4.941407 7.386719 0 14.367188-1.785157 20.53125-4.941407v-85.398437zm0 0" fill="#ffe17d"/><path d="m97.835938 241.699219h312.078124v180.675781h-312.078124zm0 0" fill="#c4deff"/><path d="m97.835938 389.523438h312.078124v32.851562h-312.078124zm0 0" fill="#c9c6ca"/><path d="m48.5625 422.375h410.628906v82.125h-410.628906zm0 0" fill="#ff9ba0"/><path d="m426.339844 447.011719h-344.925782c-4.539062 0-8.214843-3.675781-8.214843-8.210938v-16.425781h361.355469v16.425781c0 4.535157-3.675782 8.210938-8.214844 8.210938zm0 0" fill="#ff8087"/><path d="m97.835938 305.621094c3.925781 1.117187 8.042968 1.777344 12.320312 1.777344 7.386719 0 14.367188-1.785157 20.53125-4.941407 6.164062 3.15625 13.144531 4.941407 20.53125 4.941407 7.390625 0 14.367188-1.785157 20.53125-4.941407 6.164062 3.15625 13.144531 4.941407 20.53125 4.941407 7.390625 0 14.371094-1.785157 20.535156-4.941407 6.164063 3.15625 13.140625 4.941407 20.53125 4.941407 7.386719 0 14.367188-1.785157 20.53125-4.941407 6.164063 3.15625 13.144532 4.941407 20.53125 4.941407 7.386719 0 14.367188-1.785157 20.53125-4.941407 6.164063 3.15625 13.144532 4.941407 20.53125 4.941407 7.386719 0 14.367188-1.785157 20.53125-4.941407 6.164063 3.15625 13.144532 4.941407 20.53125 4.941407 7.390625 0 14.367188-1.785157 20.53125-4.941407 6.164063 3.15625 13.144532 4.941407 20.535156 4.941407 4.277344 0 8.390626-.660157 12.316407-1.777344v-63.921875h-312.082031zm0 0" fill="#a5cdff"/><path d="m7.5 241.699219v20.53125c0 11.335937 9.191406 20.53125 20.53125 20.53125s20.53125-9.195313 20.53125-20.53125c0 11.335937 9.191406 20.53125 20.53125 20.53125s20.53125-9.195313 20.53125-20.53125c0 11.335937 9.191406 20.53125 20.53125 20.53125s20.53125-9.195313 20.53125-20.53125c0 11.335937 9.195312 20.53125 20.53125 20.53125 11.339844 0 20.535156-9.195313 20.535156-20.53125 0 11.335937 9.191406 20.53125 20.53125 20.53125s20.53125-9.195313 20.53125-20.53125c0 11.335937 9.191406 20.53125 20.53125 20.53125s20.53125-9.195313 20.53125-20.53125c0 11.335937 9.191406 20.53125 20.53125 20.53125s20.53125-9.195313 20.53125-20.53125c0 11.335937 9.191406 20.53125 20.53125 20.53125s20.53125-9.195313 20.53125-20.53125c0 11.335937 9.195313 20.53125 20.535156 20.53125 11.339844 0 20.53125-9.195313 20.53125-20.53125 0 11.335937 9.191407 20.53125 20.53125 20.53125 11.339844 0 20.53125-9.195313 20.53125-20.53125 0 11.335937 9.191407 20.53125 20.53125 20.53125 11.339844 0 20.53125-9.195313 20.53125-20.53125 0 11.335937 9.191407 20.53125 20.53125 20.53125 11.339844 0 20.53125-9.195313 20.53125-20.53125v-20.53125zm0 0" fill="#ff8087"/><path d="m459.191406 192.421875h-410.628906l-41.0625 49.277344h492.753906zm0 0" fill="#ff9ba0"/><path d="m506.015625 236.898438v-.003907l-39.324219-47.1875v-30.136719c0-4.140624-3.359375-7.5-7.5-7.5h-91.050781v-24.449218c12.851563-7.128906 18.179687-23.007813 22.898437-37.082032 2.292969-6.828124 4.453126-13.277343 7.019532-17.199218 11.714844-17.921875 30.300781-23.058594 30.457031-23.097656 2.363281-.613282 4.285156-2.335938 5.144531-4.621094s.554688-4.847656-.820312-6.867188c-.835938-1.226562-19.9375-28.675781-48.464844-23-8.484375-6.316406-23.957031-12.753906-39.65625-5.042968-11.996094-8.800782-24.066406-12.210938-35.902344-10.109376-15.984375 2.839844-26.203125 15.03125-29.527344 19.585938l-176.929687 100.003906c-2.964844 1.675782-4.429687 5.140625-3.5625 8.4375s3.84375 5.59375 7.253906 5.59375h33.5625v17.847656h-91.050781c-4.140625 0-7.5 3.359376-7.5 7.5v30.136719l-39.324219 47.1875v.003907c-1.085937 1.300781-1.738281 2.972656-1.738281 4.800781v20.53125c0 15.457031 12.574219 28.03125 28.03125 28.03125 4.703125 0 9.136719-1.171875 13.03125-3.226563v209.964844h-8.925781c-4.140625 0-7.496094 3.359375-7.496094 7.5s3.355469 7.5 7.496094 7.5h443.480469c4.140624 0 7.5-3.359375 7.5-7.5s-3.359376-7.5-7.5-7.5h-8.925782v-209.964844c3.898438 2.054688 8.332032 3.226563 13.03125 3.226563 15.457032 0 28.035156-12.574219 28.035156-28.03125v-20.53125c-.003906-1.828125-.65625-3.5-1.742187-4.800781zm-156.621094-211.660157c6.695313-4.144531 13.265625-3.46875 18.363281-1.59375-13.339843 11.59375-15.21875 31.90625-13.878906 43.0625.492188 4.109375 4.230469 7.046875 8.339844 6.550781 4.113281-.492187 7.042969-4.226562 6.550781-8.339843-.035156-.28125-3.136719-28.035157 15.902344-33.792969 12.507813-3.78125 23.019531 2.964844 29.351563 8.851562-8.3125 4.152344-19.816407 11.835938-28.523438 25.152344-3.617188 5.535156-6.078125 12.871094-8.683594 20.640625-3.957031 11.804688-8.445312 25.1875-16.695312 29.125-3.242188 1.546875-7.214844 1.703125-12.042969.5.675781-4.707031.035156-9.8125-2.019531-15.03125-14.703125-37.332031-13.488282-64.710937 3.335937-75.125zm3.746094 105.921875v20.910156h-198.527344v-17.847656h154.546875c3.507813 2 7.632813 3.007813 11.898438 3.007813 5.945312 0 12.136718-1.925781 17.226562-5.722657 1.042969-.78125 1.992188-1.621093 2.878906-2.5 4.203126 1.34375 8.199219 2.058594 11.976563 2.152344zm-41.59375-115.808594c6.519531-1.125 13.457031.554688 20.675781 4.996094-11.027344 12.621094-19.046875 37.460938-.117187 85.511719 2.332031 5.914063 1.390625 10.5-2.796875 13.625-3.382813 2.53125-8.226563 3.382813-11.503906 2.273437l-25.15625-94.328124c3.042968-3.710938 9.71875-10.488282 18.898437-12.078126zm-176.984375 103.871094 145.160156-82.050781 21.878906 82.050781zm-93.5 143.003906c0 7.1875-5.847656 13.035157-13.03125 13.035157-7.1875 0-13.03125-5.847657-13.03125-13.035157v-13.03125h26.0625zm410.628906 234.773438h-395.628906v-67.125h395.628906zm-382.597656-206.738281c8.101562 0 15.410156-3.460938 20.53125-8.976563.246094.265625.492188.527344.75.785156-.023438.226563-.035156.457032-.035156.691407v132.113281h-34.277344v-127.839844c3.894531 2.054688 8.328125 3.226563 13.03125 3.226563zm-13.03125-28.035157v-13.03125h26.0625v13.03125c0 7.1875-5.847656 13.035157-13.03125 13.035157-7.1875 0-13.03125-5.847657-13.03125-13.035157zm95.15625 28.035157c8.105469 0 15.410156-3.460938 20.53125-8.976563 5.125 5.515625 12.429688 8.976563 20.53125 8.976563 8.105469 0 15.410156-3.460938 20.535156-8.976563 5.121094 5.515625 12.425782 8.976563 20.53125 8.976563 8.101563 0 15.40625-3.460938 20.53125-8.976563 5.121094 5.515625 12.429688 8.976563 20.53125 8.976563 8.101563 0 15.410156-3.460938 20.53125-8.976563 5.121094 5.515625 12.429688 8.976563 20.53125 8.976563 8.101563 0 15.410156-3.460938 20.53125-8.976563 5.125 5.515625 12.429688 8.976563 20.53125 8.976563 8.105469 0 15.410156-3.460938 20.53125-8.976563 5.125 5.515625 12.429688 8.976563 20.535156 8.976563 1.640626 0 3.25-.152344 4.816407-.425781v92.1875h-255.308594c-4.140625 0-7.5 3.359374-7.5 7.5 0 4.140624 3.359375 7.5 7.5 7.5h255.304687v17.851562h-297.078124v-17.851562h8.921874c4.140626 0 7.5-3.359376 7.5-7.5 0-4.140626-3.359374-7.5-7.5-7.5h-8.921874v-92.1875c1.570312.273437 3.175781.425781 4.820312.425781 8.101562 0 15.410156-3.460938 20.53125-8.976563 5.125 5.515625 12.429688 8.976563 20.53125 8.976563zm-13.03125-28.035157v-13.03125h26.0625v13.03125c0 7.1875-5.84375 13.035157-13.03125 13.035157-7.183594 0-13.03125-5.847657-13.03125-13.035157zm41.0625 0v-13.03125h26.0625v13.03125c0 7.1875-5.84375 13.035157-13.03125 13.035157-7.183594 0-13.03125-5.847657-13.03125-13.035157zm41.0625 0v-13.03125h26.0625v13.03125c0 7.1875-5.84375 13.035157-13.03125 13.035157-7.183594 0-13.03125-5.847657-13.03125-13.035157zm41.066406 0v-13.03125h26.0625v13.03125c0 7.1875-5.847656 13.035157-13.035156 13.035157-7.183594 0-13.027344-5.847657-13.027344-13.035157zm41.058594 0v-13.03125h26.0625v13.03125c0 7.1875-5.84375 13.035157-13.03125 13.035157-7.183594 0-13.03125-5.847657-13.03125-13.035157zm41.066406 0v-13.03125h26.0625v13.03125c0 7.1875-5.847656 13.035157-13.03125 13.035157-7.1875 0-13.03125-5.847657-13.03125-13.035157zm41.0625 0v-13.03125h26.0625v13.03125c0 7.1875-5.847656 13.035157-13.03125 13.035157-7.1875 0-13.03125-5.847657-13.03125-13.035157zm-261.378906 0c0 7.1875-5.84375 13.035157-13.03125 13.035157s-13.03125-5.847657-13.03125-13.035157v-13.03125h26.0625zm328.503906 152.648438h-34.273437v-132.113281c0-.234375-.015625-.464844-.035157-.695313.253907-.253906.5-.515625.746094-.78125 5.125 5.515625 12.429688 8.972656 20.53125 8.972656 4.703125 0 9.136719-1.167968 13.03125-3.222656zm0-152.648438c0 7.1875-5.84375 13.035157-13.03125 13.035157s-13.03125-5.847657-13.03125-13.035157v-13.03125h26.0625zm-428.179687-28.027343 28.5625-34.277344h357.839843c4.144532 0 7.5-3.359375 7.5-7.5s-3.355468-7.5-7.5-7.5h-353.851562v-17.851563h395.628906v17.851563h-8.921875c-4.140625 0-7.5 3.359375-7.5 7.5s3.359375 7.5 7.5 7.5h12.910157l28.5625 34.277344zm469.242187 28.027343c0 7.1875-5.84375 13.035157-13.03125 13.035157s-13.03125-5.847657-13.03125-13.035157v-13.03125h26.0625zm0 0"/></svg>