<?xml version="1.0" encoding="iso-8859-1"?>
<!-- Generator: Adobe Illustrator 19.0.0, SVG Export Plug-In . SVG Version: 6.00 Build 0)  -->
<svg version="1.1" id="Capa_1" xmlns="http://www.w3.org/2000/svg" xmlns:xlink="http://www.w3.org/1999/xlink" x="0px" y="0px"
	 viewBox="0 0 512 512" style="enable-background:new 0 0 512 512;" xml:space="preserve">
<path style="fill:#F98E19;" d="M139.411,337.872L13.161,498.839c17.548,17.548,46.1,17.548,63.649,0l111.784-111.784
	L139.411,337.872z"/>
<path style="fill:#FCA934;" d="M124.946,323.406L13.161,435.19c-17.548,17.548-17.548,46.1,0,63.649L156.77,355.23L124.946,323.406z
	"/>
<polygon style="fill:#FAD0BB;" points="281.313,442.848 196.448,188.255 132.801,379.2 238.881,485.28 "/>
<polygon style="fill:#FFEBC4;" points="69.152,230.687 26.72,273.119 132.801,379.2 260.097,251.903 "/>
<path style="fill:#7CC02C;" d="M468.131,43.87l-220.705,72.193l-72.193,220.705l31.824,31.824h42.433v42.433l31.823,31.823
	l186.818-186.818C526.624,197.538,526.624,102.362,468.131,43.87z"/>
<path style="fill:#9DD44C;" d="M255.969,43.87L69.152,230.687l31.824,31.824h42.433v42.433l31.823,31.823L468.131,43.87
	C409.637-14.623,314.462-14.623,255.969,43.87z"/>
<rect x="185.602" y="58.213" transform="matrix(-0.7071 -0.7071 0.7071 -0.7071 233.4925 477.3345)" style="fill:#7CC02C;" width="60.008" height="264.194"/>
<rect x="291.676" y="164.301" transform="matrix(-0.7071 -0.7071 0.7071 -0.7071 339.557 733.4453)" style="fill:#5CAC0D;" width="60.008" height="264.194"/>
<g>
</g>
<g>
</g>
<g>
</g>
<g>
</g>
<g>
</g>
<g>
</g>
<g>
</g>
<g>
</g>
<g>
</g>
<g>
</g>
<g>
</g>
<g>
</g>
<g>
</g>
<g>
</g>
<g>
</g>
</svg>
