<svg width="512" height="512" viewBox="0 0 512 512" fill="none" xmlns="http://www.w3.org/2000/svg">
<g clip-path="url(#clip0)">
<path d="M359.203 102.816C359.203 159.602 313.172 205.637 256.387 205.637C199.602 205.637 153.566 159.602 153.566 102.816C153.566 46.0312 199.602 0 256.387 0C313.172 0 359.203 46.0312 359.203 102.816Z" fill="#89EF9A"/>
<path d="M350.637 171.363H162.137C152.672 171.363 145 163.691 145 154.227C145 144.762 152.672 137.09 162.137 137.09H350.637C360.102 137.09 367.773 144.762 367.773 154.227C367.773 163.691 360.102 171.363 350.637 171.363Z" fill="#89EF9A"/>
<path d="M164.379 179.934L250.074 507.129C251.777 513.625 260.996 513.625 262.695 507.129L348.391 179.934H164.379Z" fill="#F7D291"/>
<path d="M249.223 205.637H341.66L348.391 179.93H164.379L250.074 507.129C250.766 509.758 252.695 511.32 254.852 511.82L232.141 224.121C231.356 214.156 239.227 205.637 249.223 205.637V205.637Z" fill="#F0C382"/>
<path d="M237.559 459.348L256.383 440.523L275.211 459.351L280.238 440.148L268.5 428.406L288.57 408.34L297.168 375.508L292.371 380.305L268.5 356.434L292.371 332.562L305.086 345.277L310.113 326.074L304.484 320.445L314.109 310.824L325.051 269.047L304.484 248.476L328.356 224.605L334.961 231.211L348.246 180.484L328.356 200.375L307.91 179.93H276.824L256.383 200.375L235.938 179.93H204.856L184.414 200.375L164.52 180.484L177.809 231.211L184.414 224.605L208.281 248.476L187.715 269.039L198.656 310.824L208.277 320.445L202.652 326.074L207.68 345.277L220.395 332.562L244.266 356.434L220.395 380.305L215.598 375.508L224.195 408.34L244.266 428.406L232.527 440.144L237.559 459.348ZM316.238 284.465L292.371 308.332L268.504 284.461L292.371 260.594L316.238 284.465ZM292.371 188.621L316.238 212.492L292.371 236.359L268.5 212.492L292.371 188.621ZM280.254 248.476L256.387 272.344L232.516 248.476L256.383 224.605L280.254 248.476ZM196.531 212.492L220.398 188.621L244.27 212.492L220.398 236.359L196.531 212.492ZM196.531 284.461L220.398 260.59L244.27 284.461L220.398 308.332L196.531 284.461ZM232.516 320.445L256.387 296.578L280.258 320.445L256.387 344.316L232.516 320.445ZM232.516 392.422L256.387 368.547L280.258 392.422L256.387 416.293L232.516 392.422Z" fill="#F0C382"/>
<path d="M164.523 180.484L177.813 231.211L184.418 224.605L208.285 248.476L187.719 269.039L198.66 310.824L208.281 320.445L202.656 326.074L207.684 345.277L220.398 332.562L242.441 354.605L240.363 328.297L232.516 320.445L239.215 313.742L237.441 291.285L220.398 308.328L196.527 284.461L220.398 260.59L236.27 276.461L234.195 250.152L232.516 248.473L233.949 247.039L232.176 224.578L220.398 236.359L196.527 212.488L220.398 188.621L240.063 208.285C242.699 206.613 245.848 205.637 249.223 205.637H275.352L292.367 188.621L309.383 205.637H341.656L348.246 180.48L328.352 200.375L307.91 179.93H276.824L256.379 200.375L235.938 179.93H204.856L184.41 200.375L164.523 180.484Z" fill="#E3AA75"/>
<path d="M246.535 406.441L232.516 392.422L244.484 380.449L242.711 357.992L220.398 380.305L215.602 375.512L224.203 408.34L244.27 428.406L232.531 440.144L237.559 459.347L249.75 447.16L246.535 406.441Z" fill="#E3AA75"/>
<path d="M350.637 188.5H162.137C157.402 188.5 153.566 184.664 153.566 179.934C153.566 175.199 157.402 171.363 162.137 171.363H350.637C355.367 171.363 359.203 175.199 359.203 179.934C359.203 184.664 355.367 188.5 350.637 188.5Z" fill="#F7D291"/>
<path d="M230.68 179.934C230.68 175.199 234.516 171.363 239.25 171.363H162.137C157.402 171.363 153.566 175.199 153.566 179.934C153.566 184.664 157.402 188.5 162.137 188.5H239.25C234.516 188.5 230.68 184.664 230.68 179.934Z" fill="#F0C382"/>
<path d="M204.977 154.227C200.246 154.227 196.41 150.391 196.41 145.66C196.41 140.926 200.246 137.09 204.977 137.09C213.285 137.09 217.938 127.363 212.551 121.035C198.934 105.039 192.125 84.9765 192.125 64.2617C192.125 45.7734 197.016 28.4219 205.555 13.4297C174.5 31.1211 153.57 64.5195 153.57 102.816C153.57 114.852 155.746 126.355 159.547 137.09H162.137C151.731 137.09 143.488 146.367 145.234 157.102C146.606 165.527 154.516 171.363 163.055 171.363H350.637C360.102 171.363 367.774 163.691 367.774 154.227H204.977Z" fill="#89EF9A"/>
</g>
<defs>
<clipPath id="clip0">
<rect width="512" height="512" fill="white"/>
</clipPath>
</defs>
</svg>
