<svg width="512" height="512" viewBox="0 0 512 512" fill="none" xmlns="http://www.w3.org/2000/svg">
<rect width="512" height="512" fill="#E5E5E5"/>
<g clip-path="url(#clip0)">
<path d="M394.147 146.148C394.147 69.851 332.297 8 256 8C179.703 8 117.852 69.851 117.852 146.148C117.852 168.671 123.247 189.931 132.81 208.715C128.604 213.689 126.064 220.117 126.064 227.141C126.064 242.914 138.851 255.701 154.624 255.701C161.363 255.701 167.551 253.362 172.435 249.459C178.949 255.677 187.767 259.503 197.483 259.503C208.659 259.503 218.651 254.448 225.309 246.504C231.739 256.675 243.077 263.435 256 263.435C268.923 263.435 280.26 256.675 286.691 246.504C293.349 254.448 303.341 259.504 314.517 259.504C324.233 259.504 333.051 255.678 339.565 249.46C344.449 253.363 350.638 255.702 357.376 255.702C373.149 255.702 385.936 242.915 385.936 227.142C385.936 220.118 383.396 213.69 379.19 208.716C388.752 189.931 394.147 168.671 394.147 146.148Z" fill="#C1FFD6"/>
<path d="M357.376 237.701C351.935 237.701 346.853 236.176 342.526 233.534C340.74 232.443 338.476 232.538 336.826 233.826C330.672 238.633 322.931 241.503 314.517 241.503C305.312 241.503 296.91 238.073 290.513 232.425C288.419 230.576 285.242 230.807 283.411 232.917C276.758 240.584 266.949 245.435 256.001 245.435C245.053 245.435 235.244 240.583 228.591 232.917C226.76 230.807 223.583 230.576 221.489 232.425C215.092 238.074 206.69 241.503 197.485 241.503C189.07 241.503 181.33 238.634 175.176 233.826C173.527 232.537 171.262 232.443 169.476 233.534C165.149 236.176 160.067 237.701 154.626 237.701C141.998 237.701 131.291 229.501 127.521 218.138C126.294 221.828 125.794 225.85 126.211 230.041C127.564 243.636 138.646 254.508 152.263 255.606C159.913 256.222 166.987 253.815 172.437 249.459C178.951 255.677 187.769 259.503 197.485 259.503C208.661 259.503 218.653 254.448 225.311 246.504C231.741 256.675 243.079 263.435 256.002 263.435C268.925 263.435 280.262 256.675 286.693 246.504C293.351 254.448 303.343 259.503 314.519 259.503C324.235 259.503 333.053 255.677 339.567 249.459C345.018 253.815 352.093 256.223 359.744 255.605C373.361 254.506 384.441 243.633 385.794 230.039C386.211 225.849 385.711 221.827 384.484 218.137C380.711 229.501 370.004 237.701 357.376 237.701V237.701Z" fill="#C1FFD6"/>
<path d="M339.565 249.459C333.051 255.677 324.233 259.503 314.517 259.503C303.341 259.503 293.349 254.448 286.691 246.503C280.261 256.674 268.923 263.434 256 263.434C243.077 263.434 231.74 256.674 225.309 246.503C218.651 254.447 208.659 259.502 197.483 259.502C187.766 259.502 178.949 255.676 172.435 249.458C169.942 251.45 167.106 253.028 164.034 254.102L242.098 493.904C246.48 507.363 265.521 507.363 269.902 493.904L347.966 254.102C344.894 253.029 342.058 251.451 339.565 249.459V249.459Z" fill="#C17D4F"/>
<path d="M339.565 249.459C333.051 255.677 324.233 259.503 314.517 259.503C303.341 259.503 293.349 254.448 286.691 246.503C280.261 256.674 268.923 263.434 256 263.434C243.077 263.434 231.74 256.674 225.309 246.503C218.651 254.447 208.659 259.502 197.483 259.502C187.766 259.502 178.949 255.676 172.435 249.458C169.942 251.45 167.106 253.028 164.034 254.102L169.119 269.723C169.237 269.653 169.356 269.582 169.473 269.511C171.256 268.428 173.515 268.528 175.158 269.813C181.315 274.628 189.061 277.502 197.483 277.502C206.688 277.502 215.09 274.072 221.487 268.424C223.581 266.575 226.758 266.806 228.589 268.916C235.242 276.583 245.051 281.434 255.999 281.434C266.947 281.434 276.756 276.582 283.409 268.916C285.24 266.806 288.417 266.575 290.511 268.424C296.908 274.073 305.31 277.502 314.515 277.502C322.937 277.502 330.683 274.628 336.84 269.813C338.483 268.528 340.742 268.428 342.525 269.511C342.643 269.582 342.761 269.653 342.879 269.723L347.964 254.102C344.894 253.029 342.058 251.451 339.565 249.459V249.459Z" fill="#B16E3D"/>
<path d="M169.942 47.587C193.822 26.592 224.505 15.029 256.338 15.029C289.031 15.029 320.333 27.146 344.478 49.148C368.465 71.006 383.424 100.748 386.6 132.895C386.984 136.774 390.252 139.671 394.07 139.671C394.317 139.671 394.567 139.659 394.817 139.634C398.947 139.226 401.965 135.547 401.557 131.417C398.015 95.566 381.339 62.403 354.601 38.038C327.682 13.509 292.784 0 256.338 0C220.85 0 186.642 12.891 160.018 36.299C156.902 39.04 156.596 43.788 159.336 46.905C162.078 50.022 166.823 50.326 169.942 47.587V47.587Z" fill="black"/>
<path d="M394.658 155.141C390.544 154.642 386.795 157.585 386.301 161.706C384.579 176.033 380.531 189.846 374.265 202.807C369.758 204.412 356.44 208.034 328.024 208.034C323.873 208.034 320.509 211.398 320.509 215.549C320.509 219.699 323.873 223.064 328.024 223.064C354.308 223.064 369.185 220.104 376.829 217.776C378.247 220.655 379.014 223.837 379.014 227.086C379.014 238.722 369.548 248.187 357.912 248.187C353.08 248.187 348.531 246.593 344.757 243.576C341.82 241.229 337.597 241.413 334.877 244.012C329.484 249.161 322.413 251.996 314.969 251.996C306.416 251.996 298.354 248.228 292.848 241.659C289.772 237.788 283.264 238.228 280.736 242.47C275.406 250.902 266.285 255.935 256.338 255.935C246.391 255.935 237.27 250.901 231.94 242.47C229.413 238.227 222.904 237.789 219.828 241.659C214.322 248.228 206.26 251.996 197.707 251.996C190.263 251.996 183.192 249.16 177.799 244.012C175.079 241.414 170.857 241.231 167.919 243.576C164.144 246.592 159.595 248.187 154.763 248.187C143.127 248.187 133.661 238.721 133.661 227.086C133.661 223.837 134.428 220.656 135.846 217.776C143.49 220.104 158.367 223.064 184.651 223.064C188.802 223.064 192.166 219.7 192.166 215.549C192.166 211.399 188.802 208.034 184.651 208.034C156.265 208.034 142.944 204.42 138.424 202.812C129.81 185.019 125.434 165.9 125.434 145.933C125.434 117.422 134.437 90.325 151.47 67.57C153.957 64.247 153.28 59.538 149.957 57.05C146.636 54.564 141.925 55.241 139.438 58.563C120.444 83.938 110.404 114.15 110.404 145.933C110.404 167.633 115.033 188.447 124.171 207.869C120.573 213.597 118.631 220.262 118.631 227.085C118.631 247.008 134.839 263.216 154.762 263.216C156.238 263.216 157.708 263.121 159.165 262.94L188.57 353.271C189.603 356.445 192.549 358.461 195.714 358.461C196.485 358.461 197.27 358.342 198.042 358.09C201.988 356.805 204.147 352.565 202.862 348.618L174.044 260.089C181.056 264.597 189.218 267.025 197.706 267.025C207.655 267.025 217.166 263.676 224.833 257.635C233.009 266.102 244.271 270.965 256.337 270.965C268.403 270.965 279.665 266.102 287.841 257.635C295.508 263.676 305.019 267.025 314.968 267.025C323.456 267.025 331.618 264.597 338.63 260.089L263.121 492.045C261.633 496.616 257.552 496.971 256.337 496.971C255.122 496.971 251.042 496.616 249.553 492.045L212.142 377.122C210.858 373.177 206.619 371.018 202.67 372.303C198.723 373.588 196.565 377.828 197.85 381.775L235.261 496.698C238.288 505.994 246.56 512.001 256.336 512.001C266.112 512.001 274.385 505.994 277.411 496.698L353.507 262.94C354.964 263.121 356.434 263.216 357.91 263.216C377.833 263.216 394.041 247.008 394.041 227.085C394.041 220.262 392.099 213.596 388.501 207.868C395.091 193.84 399.366 178.936 401.22 163.498C401.718 159.378 398.778 155.636 394.658 155.141Z" fill="black"/>
</g>
<defs>
<clipPath id="clip0">
<rect width="512" height="512" fill="white"/>
</clipPath>
</defs>
</svg>
