<svg id="icon" height="512" viewBox="0 0 128 128" width="512" xmlns="http://www.w3.org/2000/svg"><path d="m95.156 36.656a31.072 31.072 0 1 1 -.918-7.485h.015a31.373 31.373 0 0 1 .903 7.485z" fill="#ffa6b7"/><path d="m64.081 68.717a32.1 32.1 0 0 1 -32.06-32.061 32.44 32.44 0 0 1 .8-7.132 32.072 32.072 0 0 1 62.351-.752 1.049 1.049 0 0 1 .054.161 32.1 32.1 0 0 1 -31.145 39.784zm0-62.121a29.88 29.88 0 0 0 -29.31 23.37 30.064 30.064 0 1 0 58.548-.4.886.886 0 0 1 -.051-.153 29.983 29.983 0 0 0 -29.187-22.813z" fill="#2f3a5a"/><path d="m94.238 29.171a5.9 5.9 0 0 1 -3.269-.187c-3.728-1.362-5.564-6.4-9.508-6.8a7.247 7.247 0 0 0 -5.2 2.051 50.928 50.928 0 0 1 -4.3 3.771 5.759 5.759 0 0 1 -5.435.846c-1.75-.817-2.624-2.767-3.987-4.144a7.356 7.356 0 0 0 -11.2.8c-.939 1.268-1.439 2.774-2.287 4.092a9.4 9.4 0 0 1 -9.622 3.944 10.192 10.192 0 0 1 -5.635-3.8 31.071 31.071 0 0 1 60.443-.573z" fill="#f0f5f9"/><path d="m41.294 34.745a9.663 9.663 0 0 1 -2.077-.224 11.086 11.086 0 0 1 -6.2-4.15 1 1 0 0 1 -.2-.848 32.072 32.072 0 0 1 62.39-.592 1 1 0 0 1 -.765 1.218 6.906 6.906 0 0 1 -3.822-.227 12.74 12.74 0 0 1 -4.648-3.585c-1.453-1.528-2.824-2.973-4.615-3.155-1.68-.182-3.357.892-4.457 1.818-.526.444-1.019.917-1.542 1.418a21.079 21.079 0 0 1 -2.849 2.421 6.655 6.655 0 0 1 -6.41.922 8.51 8.51 0 0 1 -3.064-2.878 14.7 14.7 0 0 0 -1.214-1.471 6.356 6.356 0 0 0 -9.681.691 13.872 13.872 0 0 0 -1.2 2.12 19.684 19.684 0 0 1 -1.04 1.916 10.377 10.377 0 0 1 -8.606 4.606zm-6.411-5.257a8.9 8.9 0 0 0 4.765 3.08 8.4 8.4 0 0 0 8.567-3.513 17.994 17.994 0 0 0 .928-1.717 15.464 15.464 0 0 1 1.386-2.418 8.356 8.356 0 0 1 12.717-.909 16.413 16.413 0 0 1 1.384 1.667 6.941 6.941 0 0 0 2.312 2.272c1.435.663 3.245.036 4.457-.773a19.355 19.355 0 0 0 2.575-2.2c.522-.5 1.062-1.019 1.637-1.5 2.034-1.715 4.037-2.481 5.954-2.281 2.525.258 4.22 2.042 5.859 3.768a11.137 11.137 0 0 0 3.888 3.085 4.522 4.522 0 0 0 1.664.269 30.074 30.074 0 0 0 -58.093 1.174z" fill="#2f3a5a"/><path d="m64.017 1a7.1 7.1 0 0 0 -7.1 7.1c0 3.923 3.18 2.988 7.1 2.988s7.1.935 7.1-2.988a7.1 7.1 0 0 0 -7.1-7.1z" fill="#ef5361"/><path d="m67.5 12.187c-.51 0-1.047-.022-1.6-.046-1.2-.05-2.563-.05-3.76 0-2.128.09-3.967.166-5.162-.98a4.016 4.016 0 0 1 -1.064-3.061 8.1 8.1 0 1 1 16.2 0 4.02 4.02 0 0 1 -1.059 3.058 4.892 4.892 0 0 1 -3.555 1.029zm-3.483-2.1c.68 0 1.338.028 1.963.054 1.671.07 3.116.13 3.695-.426a2.238 2.238 0 0 0 .444-1.615 6.1 6.1 0 1 0 -12.2 0 2.243 2.243 0 0 0 .443 1.614c.58.555 2.023.5 3.7.426.615-.023 1.274-.051 1.955-.051z" fill="#2f3a5a"/><path d="m87.368 63.767-2.71 7.9-1.6 4.671-.658 1.932-2.263 6.582-1.7 4.984-.56 1.619-2.253 6.593-1.815 5.252-.456 1.329-2.264 6.6-1.9 5.554-.353 1.038-2.273 6.593-.353 1.048a2.272 2.272 0 0 1 -4.3 0l-.353-1.048-2.274-6.593-.353-1.038-1.9-5.554-2.263-6.6-.457-1.329-1.806-5.253-2.253-6.593-.561-1.619-1.7-4.984-2.263-6.581-.665-1.931-1.6-4.671-2.709-7.9z" fill="#fdb978"/><path d="m51.364 63.767-.592.592-4.423 4.422-2.886 2.887" fill="#fdb978"/><path d="m43.463 72.667a1 1 0 0 1 -.707-1.707l7.9-7.9a1 1 0 0 1 1.414 1.414l-7.9 7.9a1 1 0 0 1 -.707.293z" fill="#dd9f6b"/><path d="m45.726 78.27.634-.633 4.422-4.423 4.423-4.422 4.433-4.433.592-.592" fill="#fdb978"/><path d="m45.727 79.271a1 1 0 0 1 -.707-1.708l14.5-14.5a1 1 0 1 1 1.415 1.414l-14.5 14.5a1 1 0 0 1 -.708.294z" fill="#dd9f6b"/><path d="m69.075 63.767-.592.592-4.422 4.422-4.433 4.433-4.423 4.423-4.423 4.423-2.792 2.792" fill="#fdb978"/><path d="m47.989 85.853a1 1 0 0 1 -.707-1.707l21.086-21.086a1 1 0 0 1 1.414 1.414l-21.082 21.086a1 1 0 0 1 -.711.293z" fill="#dd9f6b"/><path d="m77.941 63.767-.591.592-4.434 4.433-4.422 4.422-4.433 4.433-4.423 4.423-4.423 4.423-4.433 4.433-.529.529" fill="#fdb978"/><path d="m50.253 92.455a1 1 0 0 1 -.707-1.707l27.688-27.688a1 1 0 1 1 1.414 1.414l-27.688 27.688a1 1 0 0 1 -.707.293z" fill="#dd9f6b"/><path d="m52.506 98.048 2.699-2.7 4.433-4.433 4.423-4.422 4.422-4.423 4.433-4.433 4.423-4.423 4.433-4.433 5.015-5.014" fill="#fdb978"/><path d="m52.506 99.048a1 1 0 0 1 -.707-1.707l34.28-34.281a1 1 0 1 1 1.414 1.414l-34.28 34.281a1 1 0 0 1 -.707.293z" fill="#dd9f6b"/><path d="m54.769 104.63.436-.436 4.423-4.423 4.433-4.433 4.422-4.423 4.423-4.422 4.433-4.433 4.423-4.423 1.298-1.298" fill="#fdb978"/><path d="m54.77 105.63a1 1 0 0 1 -.707-1.707l28.29-28.291a1 1 0 1 1 1.414 1.414l-28.29 28.29a1 1 0 0 1 -.707.294z" fill="#dd9f6b"/><path d="m57.032 111.233 2.606-2.606 4.423-4.423 4.433-4.433 4.422-4.423 4.423-4.422 1.09-1.09" fill="#fdb978"/><path d="m57.032 112.232a1 1 0 0 1 -.707-1.707l21.4-21.4a1 1 0 0 1 1.414 1.415l-21.4 21.4a.993.993 0 0 1 -.707.292z" fill="#dd9f6b"/><path d="m59.285 117.825.343-.342 4.433-4.434 4.422-4.422 4.433-4.433.893-.893" fill="#fdb978"/><path d="m59.285 118.825a1 1 0 0 1 -.707-1.707l14.522-14.525a1 1 0 0 1 1.414 1.415l-14.522 14.524a.993.993 0 0 1 -.707.293z" fill="#dd9f6b"/><path d="m69.189 116.787-.695.696-4.433 4.433-2.502 2.502" fill="#fdb978"/><path d="m61.559 125.417a1 1 0 0 1 -.707-1.707l7.63-7.63a1 1 0 0 1 1.414 1.414l-7.63 7.631a1 1 0 0 1 -.707.292z" fill="#dd9f6b"/><path d="m84.658 71.668-2.886-2.887-4.422-4.422-.592-.592" fill="#fdb978"/><path d="m84.658 72.667a1 1 0 0 1 -.707-.292l-7.9-7.9a1 1 0 0 1 1.414-1.414l7.9 7.9a1 1 0 0 1 -.707 1.707z" fill="#dd9f6b"/><path d="m67.892 63.767.591.592 4.433 4.433 4.423 4.422 4.423 4.423.633.633" fill="#fdb978"/><path d="m82.4 79.271a1 1 0 0 1 -.708-.293l-14.5-14.5a1 1 0 1 1 1.408-1.418l14.5 14.5a1 1 0 0 1 -.707 1.708z" fill="#dd9f6b"/><path d="m80.132 84.852-2.793-2.792-4.423-4.423-4.422-4.423-4.433-4.433-4.423-4.422-.592-.592" fill="#fdb978"/><path d="m80.132 85.853a1 1 0 0 1 -.707-.293l-21.086-21.086a1 1 0 0 1 1.414-1.414l21.086 21.086a1 1 0 0 1 -.707 1.707z" fill="#dd9f6b"/><path d="m77.869 91.455-.53-.529-4.433-4.433-4.423-4.423-4.422-4.423-4.433-4.433-4.423-4.422-4.433-4.433-.592-.592" fill="#fdb978"/><path d="m77.868 92.455a1 1 0 0 1 -.707-.293l-27.687-27.688a1 1 0 0 1 1.414-1.414l27.687 27.688a1 1 0 0 1 -.707 1.707z" fill="#dd9f6b"/><path d="m41.335 63.767 5.014 5.014 4.433 4.433 4.423 4.423 4.433 4.433 4.423 4.423 4.422 4.422 4.433 4.433 2.7 2.7" fill="#fdb978"/><path d="m75.616 99.048a1 1 0 0 1 -.707-.293l-34.281-34.281a1 1 0 0 1 1.414-1.414l34.281 34.281a1 1 0 0 1 -.707 1.707z" fill="#dd9f6b"/><path d="m45.062 76.339 1.298 1.298 4.422 4.423 4.433 4.433 4.423 4.422 4.423 4.423 4.433 4.433 4.422 4.423.437.436" fill="#fdb978"/><path d="m73.353 105.63a1 1 0 0 1 -.707-.293l-28.291-28.291a1 1 0 1 1 1.415-1.414l28.29 28.29a1 1 0 0 1 -.707 1.708z" fill="#dd9f6b"/><path d="m71.089 111.233-2.606-2.606-4.422-4.423-4.433-4.433-4.423-4.423-4.423-4.422-1.09-1.09" fill="#fdb978"/><path d="m71.089 112.232a.993.993 0 0 1 -.707-.293l-21.4-21.4a1 1 0 0 1 1.418-1.41l21.4 21.4a1 1 0 0 1 -.707 1.707z" fill="#dd9f6b"/><path d="m54.312 103.301.893.893 4.433 4.433 4.423 4.422 4.433 4.434.342.342" fill="#fdb978"/><path d="m68.836 118.825a1 1 0 0 1 -.708-.294l-14.523-14.523a1 1 0 1 1 1.415-1.414l14.524 14.525a1 1 0 0 1 -.708 1.706z" fill="#dd9f6b"/><path d="m58.932 116.787.696.696 4.433 4.433 2.502 2.502" fill="#fdb978"/><path d="m66.563 125.417a1 1 0 0 1 -.708-.292l-7.629-7.631a1 1 0 0 1 1.414-1.414l7.63 7.63a1 1 0 0 1 -.707 1.707z" fill="#dd9f6b"/><path d="m64.062 128a3.235 3.235 0 0 1 -3.095-2.208l-.356-1.055-20.8-60.646a1 1 0 0 1 .946-1.324h46.611a1 1 0 0 1 .946 1.324l-21.156 61.694a3.237 3.237 0 0 1 -3.096 2.215zm-21.908-63.233 20.705 60.38a1.273 1.273 0 0 0 2.406-.007l.349-1.041 20.354-59.332z" fill="#2f3a5a"/><path d="m95.98 48.853h-63.96c-.671 13.713 8.612 14.914 8.612 14.914h46.736s9.284-1.201 8.612-14.914z" fill="#fdb978"/><path d="m87.368 64.767h-46.736a1.086 1.086 0 0 1 -.128-.008c-.1-.013-10.191-1.487-9.483-15.955a1 1 0 0 1 1-.951h63.959a1 1 0 0 1 1 .951c.709 14.468-9.38 15.942-9.483 15.955a1.086 1.086 0 0 1 -.129.008zm-46.66-2h46.585c.755-.125 7.889-1.612 7.72-12.914h-62.026c-.169 11.284 6.943 12.784 7.721 12.914z" fill="#2f3a5a"/></svg>