<svg height="512pt" viewBox="0 0 512 512" width="512pt" xmlns="http://www.w3.org/2000/svg"><path d="m46.277344 465.722656 46.277344 46.277344 92.554687-92.554688-92.554687-21.445312zm0 0" fill="#804111"/><path d="m92.554688 419.445312h92.554687l81.722656-81.722656-92.554687-24.722656zm0 0" fill="#ffb655"/><path d="m174.277344 337.722656h92.554687l81.722657-81.722656-92.554688-22zm0 0" fill="#804111"/><path d="m256 256h92.554688l81.722656-81.722656-92.554688-20.777344zm0 0" fill="#ffb655"/><path d="m337.722656 174.277344h92.554688l81.722656-81.722656-92.554688-17.632813zm0 0" fill="#804111"/><path d="m419.445312 92.554688h92.554688l-46.277344-46.277344zm0 0" fill="#ffb655"/><path d="m0 419.445312 46.277344 46.277344 46.277344-46.277344-32.054688-21.445312zm0 0" fill="#cb671b"/><path d="m174.277344 337.722656-34.277344-16.222656-58.277344 16.222656-81.722656 81.722656h92.554688zm0 0" fill="#ffd399"/><path d="m256 256-29-18.5-63.554688 18.5-81.722656 81.722656h92.554688zm0 0" fill="#cb671b"/><path d="m337.722656 174.277344-33.222656-18.277344-59.332031 18.277344-81.722657 81.722656h92.554688zm0 0" fill="#ffd399"/><path d="m419.445312 92.554688-16.445312-23.140626-76.109375 23.140626-81.722656 81.722656h92.554687zm0 0" fill="#cb671b"/><path d="m465.722656 46.277344-46.277344-46.277344-92.554687 92.554688h92.554687zm0 0" fill="#ffd399"/></svg>