<svg width="512" height="512" viewBox="0 0 512 512" fill="none" xmlns="http://www.w3.org/2000/svg">
<path d="M66.813 99.571L152.508 426.766C154.211 433.262 163.43 433.262 165.129 426.766L250.825 99.571H66.813Z" fill="#F7D291"/>
<path d="M151.657 125.274H244.094L250.825 99.567H66.813L152.508 426.766C153.2 429.395 155.129 430.957 157.286 431.457L134.575 143.758C133.79 133.793 141.661 125.274 151.657 125.274Z" fill="#F0C382"/>
<path d="M139.993 378.985L158.817 360.16L177.645 378.988L182.672 359.785L170.934 348.043L191.004 327.977L199.602 295.145L194.805 299.942L170.934 276.071L194.805 252.199L207.52 264.914L212.547 245.711L206.918 240.082L216.543 230.461L227.485 188.684L206.918 168.113L230.79 144.242L237.395 150.848L250.68 100.121L230.79 120.012L210.344 99.567H179.258L158.817 120.012L138.372 99.567H107.29L86.848 120.012L66.954 100.121L80.243 150.848L86.848 144.242L110.715 168.113L90.149 188.676L101.09 230.461L110.711 240.082L105.086 245.711L110.114 264.914L122.829 252.199L146.7 276.071L122.829 299.942L118.032 295.145L126.629 327.977L146.7 348.043L134.961 359.781L139.993 378.985ZM218.672 204.102L194.805 227.969L170.938 204.098L194.805 180.231L218.672 204.102ZM194.805 108.258L218.672 132.129L194.805 155.996L170.934 132.129L194.805 108.258ZM182.688 168.113L158.821 191.981L134.95 168.113L158.817 144.242L182.688 168.113ZM98.965 132.129L122.832 108.258L146.704 132.129L122.832 155.996L98.965 132.129ZM98.965 204.098L122.832 180.227L146.704 204.098L122.832 227.969L98.965 204.098ZM134.95 240.082L158.821 216.215L182.692 240.082L158.821 263.953L134.95 240.082ZM134.95 312.059L158.821 288.184L182.692 312.059L158.821 335.93L134.95 312.059Z" fill="#F0C382"/>
<path d="M66.957 100.121L80.247 150.848L86.852 144.242L110.719 168.113L90.153 188.676L101.094 230.461L110.715 240.082L105.09 245.711L110.118 264.914L122.832 252.199L144.875 274.242L142.797 247.934L134.95 240.082L141.649 233.379L139.875 210.922L122.832 227.965L98.961 204.098L122.832 180.227L138.704 196.098L136.629 169.789L134.95 168.11L136.383 166.676L134.61 144.215L122.832 155.996L98.961 132.125L122.832 108.258L142.497 127.922C145.133 126.25 148.282 125.274 151.657 125.274H177.786L194.801 108.258L211.817 125.274H244.09L250.68 100.117L230.786 120.012L210.344 99.567H179.258L158.813 120.012L138.372 99.567H107.29L86.844 120.012L66.957 100.121Z" fill="#E3AA75"/>
<path d="M148.969 326.078L134.95 312.059L146.918 300.086L145.145 277.629L122.832 299.942L118.036 295.149L126.637 327.977L146.704 348.043L134.965 359.781L139.993 378.984L152.184 366.797L148.969 326.078Z" fill="#E3AA75"/>
<path d="M253.071 108.137H64.571C59.836 108.137 56 104.301 56 99.571C56 94.836 59.836 91 64.571 91H253.071C257.801 91 261.637 94.836 261.637 99.571C261.637 104.301 257.801 108.137 253.071 108.137Z" fill="#F7D291"/>
<path d="M133.114 99.571C133.114 94.836 136.95 91 141.684 91H64.571C59.836 91 56 94.836 56 99.571C56 104.301 59.836 108.137 64.571 108.137H141.684C136.95 108.137 133.114 104.301 133.114 99.571Z" fill="#F0C382"/>
</svg>
